<?xml version="1.0" ?><!DOCTYPE svg  PUBLIC '-//W3C//DTD SVG 20010904//EN'  'http://www.w3.org/TR/2001/REC-SVG-20010904/DTD/svg10.dtd'><svg height="512.000000pt" preserveAspectRatio="xMidYMid meet" version="1.0" viewBox="0 0 512.000000 512.000000" width="512.000000pt" xmlns="http://www.w3.org/2000/svg"><g fill="#000000" stroke="none" transform="translate(0.000000,512.000000) scale(0.100000,-0.100000)"><path d="M2285 4898 c-311 -35 -683 -165 -955 -333 -220 -137 -472 -361 -622 -555 -256 -331 -417 -712 -480 -1135 -20 -136 -17 -512 5 -655 103 -665 471 -1245 1027 -1616 287 -191 623 -320 966 -371 164 -24 504 -24 668 0 411 61 815 237 1136 494 459 368 764 897 857 1485 25 159 25 537 0 696 -83 524 -329 995 -708 1356 -370 352 -861 581 -1361 635 -114 13 -419 12 -533 -1z m-114 -1022 c77 -20 144 -47 262 -104 4 -2 7 6 7 17 0 39 30 20 94 -60 23 -30 34 -52 30 -63 -5 -12 -2 -15 10 -10 9 3 16 10 16 16 0 5 25 36 56 69 47 48 70 64 136 89 140 54 191 63 353 64 135 1 198 -3 275 -19 13 -2 40 -7 60 -10 20 -3 45 -7 57 -9 11 -3 38 -7 59 -10 22 -4 66 -11 99 -16 33 -6 74 -13 91 -15 26 -5 40 -19 80 -79 l49 -74 162 -32 163 -33 0 -908 0 -909 -42 0 c-24 0 -149 9 -278 20 -129 11 -338 26 -465 35 -126 8 -311 22 -409 30 -156 13 -181 13 -195 1 -11 -10 -65 -18 -188 -25 -95 -6 -184 -11 -199 -11 l-27 0 7 -102 c3 -57 13 -183 22 -280 8 -98 14 -187 12 -199 -3 -19 -6 -17 -28 16 -14 21 -30 40 -37 42 -6 3 -24 -14 -39 -36 -15 -23 -30 -41 -34 -41 -7 0 -10 31 -35 370 -21 282 -18 270 -63 270 -20 0 -86 -4 -147 -10 -60 -5 -189 -14 -285 -20 -96 -6 -322 -22 -501 -35 -179 -14 -344 -25 -367 -25 l-42 0 0 909 0 909 23 5 c12 3 83 15 159 28 l136 22 42 76 42 77 242 33 c132 19 279 40 326 46 136 20 208 17 311 -9z"/><path d="M3005 3814 c-39 -6 -117 -28 -175 -48 -89 -30 -111 -42 -146 -78 -23 -25 -50 -68 -63 -101 -21 -58 -21 -63 -19 -734 l3 -676 47 36 c71 55 100 66 216 87 133 24 440 27 612 6 63 -8 143 -17 178 -20 l62 -6 0 733 0 733 -167 33 c-103 21 -209 35 -273 38 -58 2 -128 5 -155 6 -28 2 -82 -2 -120 -9z"/><path d="M1920 3807 c-3 -3 -68 -10 -145 -16 -187 -15 -368 -41 -377 -55 -12 -18 -10 -1444 2 -1451 16 -10 854 16 861 26 3 5 11 78 18 162 19 236 30 337 61 537 15 102 43 295 60 429 31 235 32 245 14 258 -53 39 -282 101 -404 109 -47 4 -87 4 -90 1z"/><path d="M1304 3639 c-7 -8 -42 -58 -78 -112 l-66 -99 0 -689 c0 -379 3 -689 8 -689 4 0 40 49 80 109 l72 108 -2 693 c-2 521 -6 690 -14 679z"/><path d="M3800 2957 l0 -682 65 -104 c35 -57 69 -109 75 -115 7 -7 10 197 10 676 l0 686 -67 111 c-36 61 -70 111 -75 111 -4 0 -8 -307 -8 -683z"/><path d="M2508 3190 c-25 -54 -98 -665 -98 -820 l0 -118 51 -32 c28 -17 53 -29 55 -27 2 2 3 231 2 508 -2 277 -6 497 -10 489z"/><path d="M1805 2273 c-77 -5 -274 -23 -330 -30 -42 -6 -46 -8 -25 -14 22 -6 21 -7 -10 -8 -62 -2 -76 -11 -113 -74 -20 -34 -52 -88 -72 -119 -28 -48 -31 -58 -17 -58 37 0 502 31 745 50 142 11 262 20 267 20 18 0 12 77 -7 84 -14 6 -14 8 3 21 16 11 17 16 6 27 -9 9 -60 13 -190 15 -98 1 -184 4 -192 7 -8 3 -31 7 -50 9 -19 3 72 4 203 3 230 -1 238 0 235 18 -4 24 -28 31 -158 45 -95 10 -179 12 -295 4z"/><path d="M2943 2250 c-101 -11 -172 -29 -211 -52 -45 -27 -112 -118 -112 -151 0 -25 3 -27 38 -26 20 0 55 6 76 12 31 10 87 8 270 -5 211 -15 553 -39 799 -54 l98 -6 -28 51 c-15 28 -47 81 -70 119 l-42 69 -163 23 c-177 25 -520 36 -655 20z"/></g></svg>